<svg width="64" height="64" viewBox="0 0 64 64" fill="none" xmlns="http://www.w3.org/2000/svg">
<g clip-path="url(#clip0_1231_541)">
<path fill-rule="evenodd" clip-rule="evenodd" d="M0.87484 2.03994C0.12584 2.47644 -0.000160156 3.33794 -0.000160156 8.02494V13.4999H24.4998H48.9998V7.80844C48.9998 2.32844 48.9578 2.10544 47.8748 1.81494C45.8718 1.27844 1.82084 1.48894 0.87484 2.03994ZM5.78534 6.28544C4.82884 7.24244 4.81284 7.55344 5.66284 8.71544C6.12634 9.34944 6.65334 9.51844 7.41284 9.27744C9.25534 8.69294 8.69034 5.49994 6.74484 5.49994C6.64934 5.49994 6.21784 5.85344 5.78534 6.28544ZM13.2853 6.28544C12.3288 7.24244 12.3128 7.55344 13.1628 8.71544C13.6263 9.34944 14.1533 9.51844 14.9128 9.27744C16.7553 8.69294 16.1903 5.49994 14.2448 5.49994C14.1493 5.49994 13.7178 5.85344 13.2853 6.28544ZM20.7853 6.28544C19.8288 7.24244 19.8128 7.55344 20.6628 8.71544C21.1263 9.34944 21.6533 9.51844 22.4128 9.27744C24.2553 8.69294 23.6903 5.49994 21.7448 5.49994C21.6493 5.49994 21.2178 5.85344 20.7853 6.28544ZM0.11784 32.6249L0.24984 48.2499L10.5953 48.3849L20.9408 48.5199L19.5953 46.1349C18.4833 44.1639 18.2523 43.1424 18.2648 40.2499C18.2813 36.3559 19.3373 33.7434 21.8288 31.4319C24.7403 28.7314 26.2638 28.2909 33.2498 28.1274C38.4543 28.0059 40.6718 27.7124 44.3748 26.6549L48.9998 25.3344V21.1669V16.9999H24.4928H-0.0141602L0.11784 32.6249ZM52.1248 28.1029L43.4998 30.6454V40.2874V49.9289L46.1248 50.6819C58.9033 54.3479 61.6403 55.0494 62.6223 54.9099L63.7498 54.7499L63.8903 41.2499C63.9673 33.8249 63.9068 27.2434 63.7558 26.6249C63.3603 25.0069 62.0708 25.1709 52.1248 28.1029ZM31.4998 40.2499V49.0404L35.6248 48.8949L39.7498 48.7499V40.2499V31.7499L35.6248 31.6049L31.4998 31.4594V40.2499ZM24.2868 34.2464C21.3338 37.1994 20.8728 41.2154 23.0708 44.8369C24.0828 46.5039 26.9253 48.6049 27.6028 48.1864C27.8213 48.0514 27.9998 44.4669 27.9998 40.2204C27.9998 32.8769 27.9518 32.4999 27.0163 32.4999C26.4758 32.4999 25.2473 33.2859 24.2868 34.2464ZM31.4998 57.0124C31.4998 61.3959 31.5363 61.5384 32.7823 62.0124C34.6988 62.7409 37.6323 62.6014 38.8883 61.7214C39.8878 61.0219 39.9998 60.5174 39.9998 56.7214V52.4999H35.7498H31.4998V57.0124Z" fill="#662E9B"/>
</g>
<defs>
<clipPath id="clip0_1231_541">
<rect width="64" height="64" fill="white"/>
</clipPath>
</defs>
</svg>
