<svg width="64" height="64" viewBox="0 0 64 64" fill="none" xmlns="http://www.w3.org/2000/svg">
<path fill-rule="evenodd" clip-rule="evenodd" d="M30.6925 0.778043C27.7145 1.87854 24.5405 4.81454 23.187 7.72204C22.1055 10.045 22.0095 10.902 22.005 18.2845L22 26.319L17.623 30.5345C15.216 32.853 10.275 37.617 6.64353 41.1205L0.0405273 47.491L1.23553 48.8705L2.43103 50.25L4.36153 48.375C5.42353 47.344 6.45153 46.5 6.64603 46.5C6.84053 46.5 7.00003 49.524 7.00003 53.22V59.9395L5.12503 60.095C3.35203 60.2415 3.24153 60.352 3.09503 62.125L2.93953 64H10.47H18V56.5V49H23.75H29.5V56.5V64H37H44.5V62V60H42.5H40.5V53.25C40.5 49.5375 40.6595 46.5 40.854 46.5C41.0485 46.5 42.064 47.336 43.11 48.3575L45.0125 50.215L46.356 48.8715L47.6995 47.5275L39.975 40.1325C35.726 36.0655 30.731 31.2985 28.875 29.5395C25.871 26.693 25.5 26.1345 25.5 24.457V22.573L28.2515 24.23C31.398 26.1245 34.4465 26.742 37.39 26.0805C39.2705 25.658 39.537 25.734 40.805 27.0575L42.1805 28.4935L40.9905 29.7605L39.8 31.0275L41.1365 32.3635L42.4725 33.7L43.7365 32.513L45 31.3255L46.2555 32.505L47.5105 33.684L46.2635 34.986L45.016 36.288L49.259 40.509L53.502 44.73L58.753 39.497L64.0035 34.2645L55.8095 26.007L47.6155 17.75L47.869 14.611C48.015 12.7985 47.857 10.5255 47.4945 9.23104C46.729 6.49604 43.6005 2.82704 40.829 1.41254C38.1815 0.0620434 33.435 -0.234957 30.6925 0.778043ZM32.6575 8.23204C29.8185 9.46654 28.622 13.4925 30.345 16.0135C33.6295 20.82 40.492 18.7735 40.498 12.9865C40.5005 10.8895 39.4745 9.27104 37.4945 8.24704C35.731 7.33504 34.7265 7.33204 32.6575 8.23204ZM22 43.25C22 44.9165 22.0835 45 23.75 45C25.4165 45 25.5 44.9165 25.5 43.25C25.5 41.5835 25.4165 41.5 23.75 41.5C22.0835 41.5 22 41.5835 22 43.25ZM22 58.25V64H23.75H25.5V58.25V52.5H23.75H22V58.25Z" fill="#662E9B"/>
</svg>
