<svg width="64" height="64" viewBox="0 0 64 64" fill="none" xmlns="http://www.w3.org/2000/svg">
<g clip-path="url(#clip0_1231_537)">
<path fill-rule="evenodd" clip-rule="evenodd" d="M19.65 0.902069C14.7795 2.63907 11.084 5.89357 8.749 10.5021C6.7165 14.5131 6.702 14.5001 13.033 14.5001C19.164 14.5001 19.905 14.2606 22.548 11.4276C25.042 8.75457 26.3155 8.86057 29.4055 12.0001L31.8665 14.5001H37.967C44.063 14.5001 44.067 14.4991 43.719 13.3751C42.2425 8.60807 38.2825 4.04357 33.625 1.74057C29.8285 -0.136931 23.6085 -0.509931 19.65 0.902069ZM24.552 14.5366C22.878 16.8011 19.9095 17.9761 15.831 17.9891L12.4115 18.0001L12.585 23.3751C12.78 29.4126 13.41 31.2241 16.375 34.2771C18.907 36.8846 21.596 37.9771 25.5 37.9841C29.5165 37.9916 33.0225 36.4951 35.441 33.7406C37.9515 30.8816 38.6215 28.8281 38.8875 23.1791L39.1265 18.1081L34.901 17.9291C30.3605 17.7366 27.9325 16.6551 26.4095 14.1456L25.7025 12.9801L24.552 14.5366ZM6.2275 19.2276C4.043 21.4116 5.1985 25.5001 8 25.5001C8.911 25.5001 9 25.1666 9 21.7501C9 17.5316 8.436 17.0186 6.2275 19.2276ZM42.5 21.7501C42.5 25.0616 42.608 25.5001 43.4225 25.5001C44.4925 25.5001 45.7355 24.2306 46.2185 22.6441C46.5825 21.4491 45.816 19.6181 44.5435 18.6411C42.8475 17.3391 42.5 17.8676 42.5 21.7501ZM21.625 28.3311C21.2815 28.4701 21 29.0921 21 29.7141C21 32.4876 25.8685 33.9221 28.875 32.0351C31.9055 30.1326 30.3725 27.3616 27.142 28.9021C25.601 29.6371 25.36 29.6331 24.0335 28.8496C23.243 28.3821 22.518 28.0181 22.423 28.0396C22.328 28.0611 21.969 28.1926 21.625 28.3311ZM43.216 43.0221C39.3515 46.3226 36.6805 48.9771 36.5775 49.6191C36.383 50.8326 37.7305 52.0721 38.7985 51.6621C39.3775 51.4401 39.5 52.4931 39.5 57.6966V64.0001H44H48.5L48.5075 60.3751C48.5165 56.2146 48.888 55.3456 50.5565 55.5816C51.6905 55.7416 51.7575 55.9561 51.895 59.8751L52.0405 64.0001H55.92C58.271 64.0001 60.0365 63.7636 60.4 63.4001C60.7965 63.0036 61 60.8661 61 57.0966C61 52.4081 61.125 51.4411 61.7015 51.6621C62.7695 52.0721 64.117 50.8326 63.9225 49.6191C63.745 48.5146 51.319 37.5001 50.25 37.5001C49.9375 37.5001 46.772 39.9851 43.216 43.0221ZM12.5405 41.7941C9.0775 42.7256 7.192 43.9066 4.395 46.8966C1.3685 50.1326 0 53.8756 0 58.9191C0 61.2711 0.2365 63.0366 0.6 63.4001C0.9755 63.7756 2.8405 64.0001 5.581 64.0001H9.9625L10.106 59.4281C10.257 54.6391 10.839 53.4476 12.682 54.1546C13.36 54.4151 13.5 55.2836 13.5 59.2346V64.0001H24.75H36V59.5386C36 55.2481 35.9425 55.0196 34.5 53.5771C33.3825 52.4596 33 51.6126 33 50.2556C33 47.8196 33.6665 46.6781 36.6835 43.9491L39.227 41.6476L36.865 41.2936C33.9565 40.8571 33.5 41.1166 33.5 43.2056C33.5 45.0751 31.922 47.6601 29.8385 49.2041C27.762 50.7426 23.331 50.6646 21.0665 49.0496C19.2295 47.7391 17.5285 44.5461 17.511 42.3751C17.498 40.7536 16.7405 40.6651 12.5405 41.7941ZM29.4055 41.2546C29.2165 41.4476 27.2475 41.5936 25.0305 41.5791C20.4915 41.5491 20.174 41.8891 21.978 44.8481C23.729 47.7196 27.887 47.5141 29.513 44.4756C30.09 43.3981 29.998 40.6516 29.4055 41.2546ZM47.8565 48.3106C47.201 48.9656 47.4905 50.8896 48.291 51.1966C49.4215 51.6306 51.635 51.5576 52.4185 51.0611C52.7865 50.8276 53.0115 50.1001 52.9185 49.4436C52.773 48.4126 52.441 48.2301 50.4815 48.1021C49.2335 48.0206 48.0525 48.1146 47.8565 48.3106Z" fill="#662E9B"/>
</g>
<defs>
<clipPath id="clip0_1231_537">
<rect width="64" height="64" fill="white"/>
</clipPath>
</defs>
</svg>
